<mxfile host="app.diagrams.net" modified="2024-04-19T08:08:32.670Z" agent="Mozilla/5.0 (Windows NT 10.0; Win64; x64) AppleWebKit/537.36 (KHTML, like Gecko) Chrome/123.0.0.0 Safari/537.36 Edg/123.0.0.0" etag="2Qn9AtYkoDQ7W_R8btaU" version="24.2.5" type="google" pages="2">
  <diagram id="R2lEEEUBdFMjLlhIrx00" name="Page-1">
    <mxGraphModel dx="946" dy="631" grid="0" gridSize="10" guides="1" tooltips="1" connect="1" arrows="1" fold="1" page="1" pageScale="1" pageWidth="1100" pageHeight="850" math="0" shadow="0" extFonts="Permanent Marker^https://fonts.googleapis.com/css?family=Permanent+Marker">
      <root>
        <mxCell id="0" />
        <mxCell id="1" parent="0" />
        <mxCell id="z2AJOPOEB7NvSEIP25p2-2" value="Doctor" style="whiteSpace=wrap;html=1;align=center;" parent="1" vertex="1">
          <mxGeometry x="688" y="314" width="100" height="40" as="geometry" />
        </mxCell>
        <mxCell id="z2AJOPOEB7NvSEIP25p2-3" value="Nurse" style="whiteSpace=wrap;html=1;align=center;" parent="1" vertex="1">
          <mxGeometry x="743" y="558" width="100" height="40" as="geometry" />
        </mxCell>
        <mxCell id="z2AJOPOEB7NvSEIP25p2-5" value="Patient" style="whiteSpace=wrap;html=1;align=center;" parent="1" vertex="1">
          <mxGeometry x="179" y="1255" width="95" height="40" as="geometry" />
        </mxCell>
        <mxCell id="z2AJOPOEB7NvSEIP25p2-6" value="Staff" style="whiteSpace=wrap;html=1;align=center;" parent="1" vertex="1">
          <mxGeometry x="214" y="392" width="100" height="40" as="geometry" />
        </mxCell>
        <mxCell id="z2AJOPOEB7NvSEIP25p2-17" value="Medicine" style="whiteSpace=wrap;html=1;align=center;" parent="1" vertex="1">
          <mxGeometry x="191" y="1002" width="100" height="40" as="geometry" />
        </mxCell>
        <mxCell id="z2AJOPOEB7NvSEIP25p2-18" value="Appointments" style="whiteSpace=wrap;html=1;align=center;" parent="1" vertex="1">
          <mxGeometry x="785" y="1002" width="100" height="40" as="geometry" />
        </mxCell>
        <mxCell id="z2AJOPOEB7NvSEIP25p2-20" value="Payment" style="whiteSpace=wrap;html=1;align=center;" parent="1" vertex="1">
          <mxGeometry x="707" y="20" width="100" height="40" as="geometry" />
        </mxCell>
        <mxCell id="z2AJOPOEB7NvSEIP25p2-21" value="Department" style="whiteSpace=wrap;html=1;align=center;" parent="1" vertex="1">
          <mxGeometry x="832" y="22" width="100" height="40" as="geometry" />
        </mxCell>
        <mxCell id="z2AJOPOEB7NvSEIP25p2-22" value="Lab tests" style="whiteSpace=wrap;html=1;align=center;" parent="1" vertex="1">
          <mxGeometry x="372" y="701" width="100" height="40" as="geometry" />
        </mxCell>
        <mxCell id="z2AJOPOEB7NvSEIP25p2-23" value="Phone_number" style="ellipse;whiteSpace=wrap;html=1;align=center;" parent="1" vertex="1">
          <mxGeometry x="402" y="330" width="102" height="40.63" as="geometry" />
        </mxCell>
        <mxCell id="z2AJOPOEB7NvSEIP25p2-24" value="Department" style="ellipse;whiteSpace=wrap;html=1;align=center;" parent="1" vertex="1">
          <mxGeometry x="296" y="284.37" width="72" height="29" as="geometry" />
        </mxCell>
        <mxCell id="z2AJOPOEB7NvSEIP25p2-25" value="&lt;u&gt;staffID&lt;/u&gt;" style="ellipse;whiteSpace=wrap;html=1;align=center;" parent="1" vertex="1">
          <mxGeometry x="196" y="284.37" width="72" height="29" as="geometry" />
        </mxCell>
        <mxCell id="z2AJOPOEB7NvSEIP25p2-27" value="Gender" style="ellipse;whiteSpace=wrap;html=1;align=center;" parent="1" vertex="1">
          <mxGeometry x="200" y="527" width="72" height="29" as="geometry" />
        </mxCell>
        <mxCell id="z2AJOPOEB7NvSEIP25p2-31" value="Role" style="ellipse;whiteSpace=wrap;html=1;align=center;" parent="1" vertex="1">
          <mxGeometry x="372" y="298" width="72" height="29" as="geometry" />
        </mxCell>
        <mxCell id="z2AJOPOEB7NvSEIP25p2-32" value="DoB" style="ellipse;whiteSpace=wrap;html=1;align=center;" parent="1" vertex="1">
          <mxGeometry x="320" y="527" width="72" height="29" as="geometry" />
        </mxCell>
        <mxCell id="z2AJOPOEB7NvSEIP25p2-33" value="Salary" style="ellipse;whiteSpace=wrap;html=1;align=center;" parent="1" vertex="1">
          <mxGeometry x="119" y="508" width="72" height="29" as="geometry" />
        </mxCell>
        <mxCell id="z2AJOPOEB7NvSEIP25p2-36" value="Name" style="ellipse;shape=doubleEllipse;margin=3;whiteSpace=wrap;html=1;align=center;" parent="1" vertex="1">
          <mxGeometry x="88" y="383" width="83" height="38" as="geometry" />
        </mxCell>
        <mxCell id="z2AJOPOEB7NvSEIP25p2-37" value="Lname" style="ellipse;whiteSpace=wrap;html=1;align=center;" parent="1" vertex="1">
          <mxGeometry x="35" y="447" width="72" height="29" as="geometry" />
        </mxCell>
        <mxCell id="z2AJOPOEB7NvSEIP25p2-38" value="Mname" style="ellipse;whiteSpace=wrap;html=1;align=center;" parent="1" vertex="1">
          <mxGeometry x="11" y="404" width="72" height="29" as="geometry" />
        </mxCell>
        <mxCell id="z2AJOPOEB7NvSEIP25p2-39" value="Fname" style="ellipse;whiteSpace=wrap;html=1;align=center;" parent="1" vertex="1">
          <mxGeometry x="11" y="359" width="72" height="29" as="geometry" />
        </mxCell>
        <mxCell id="z2AJOPOEB7NvSEIP25p2-45" value="" style="endArrow=none;html=1;rounded=0;entryX=0.958;entryY=0.302;entryDx=0;entryDy=0;entryPerimeter=0;exitX=0.5;exitY=1;exitDx=0;exitDy=0;" parent="1" source="z2AJOPOEB7NvSEIP25p2-36" target="z2AJOPOEB7NvSEIP25p2-37" edge="1">
          <mxGeometry relative="1" as="geometry">
            <mxPoint x="124" y="422" as="sourcePoint" />
            <mxPoint x="242" y="432" as="targetPoint" />
          </mxGeometry>
        </mxCell>
        <mxCell id="z2AJOPOEB7NvSEIP25p2-46" value="" style="endArrow=none;html=1;rounded=0;entryX=0.105;entryY=0.189;entryDx=0;entryDy=0;entryPerimeter=0;exitX=0.979;exitY=0.648;exitDx=0;exitDy=0;exitPerimeter=0;" parent="1" source="z2AJOPOEB7NvSEIP25p2-39" target="z2AJOPOEB7NvSEIP25p2-36" edge="1">
          <mxGeometry relative="1" as="geometry">
            <mxPoint x="117" y="359" as="sourcePoint" />
            <mxPoint x="92" y="394" as="targetPoint" />
          </mxGeometry>
        </mxCell>
        <mxCell id="z2AJOPOEB7NvSEIP25p2-47" value="" style="endArrow=none;html=1;rounded=0;entryX=0.04;entryY=0.711;entryDx=0;entryDy=0;entryPerimeter=0;" parent="1" target="z2AJOPOEB7NvSEIP25p2-36" edge="1">
          <mxGeometry relative="1" as="geometry">
            <mxPoint x="83" y="417" as="sourcePoint" />
            <mxPoint x="97" y="429" as="targetPoint" />
          </mxGeometry>
        </mxCell>
        <mxCell id="z2AJOPOEB7NvSEIP25p2-48" value="Address" style="ellipse;shape=doubleEllipse;margin=3;whiteSpace=wrap;html=1;align=center;" parent="1" vertex="1">
          <mxGeometry x="395" y="476" width="83" height="38" as="geometry" />
        </mxCell>
        <mxCell id="z2AJOPOEB7NvSEIP25p2-49" value="City" style="ellipse;whiteSpace=wrap;html=1;align=center;" parent="1" vertex="1">
          <mxGeometry x="504" y="519" width="72" height="29" as="geometry" />
        </mxCell>
        <mxCell id="z2AJOPOEB7NvSEIP25p2-50" value="zipCode" style="ellipse;whiteSpace=wrap;html=1;align=center;" parent="1" vertex="1">
          <mxGeometry x="444" y="548" width="72" height="29" as="geometry" />
        </mxCell>
        <mxCell id="z2AJOPOEB7NvSEIP25p2-51" value="Country" style="ellipse;whiteSpace=wrap;html=1;align=center;" parent="1" vertex="1">
          <mxGeometry x="484" y="461" width="72" height="29" as="geometry" />
        </mxCell>
        <mxCell id="z2AJOPOEB7NvSEIP25p2-52" value="" style="endArrow=none;html=1;rounded=0;entryX=0.016;entryY=0.403;entryDx=0;entryDy=0;entryPerimeter=0;exitX=0.897;exitY=0.812;exitDx=0;exitDy=0;exitPerimeter=0;" parent="1" source="z2AJOPOEB7NvSEIP25p2-48" target="z2AJOPOEB7NvSEIP25p2-49" edge="1">
          <mxGeometry relative="1" as="geometry">
            <mxPoint x="438.03" y="516" as="sourcePoint" />
            <mxPoint x="505.962" y="529.99" as="targetPoint" />
          </mxGeometry>
        </mxCell>
        <mxCell id="z2AJOPOEB7NvSEIP25p2-53" value="" style="endArrow=none;html=1;rounded=0;entryX=0.978;entryY=0.343;entryDx=0;entryDy=0;entryPerimeter=0;exitX=0.052;exitY=0.728;exitDx=0;exitDy=0;exitPerimeter=0;" parent="1" source="z2AJOPOEB7NvSEIP25p2-51" target="z2AJOPOEB7NvSEIP25p2-48" edge="1">
          <mxGeometry relative="1" as="geometry">
            <mxPoint x="424" y="452" as="sourcePoint" />
            <mxPoint x="399" y="487" as="targetPoint" />
          </mxGeometry>
        </mxCell>
        <mxCell id="z2AJOPOEB7NvSEIP25p2-54" value="" style="endArrow=none;html=1;rounded=0;entryX=0.717;entryY=0.961;entryDx=0;entryDy=0;entryPerimeter=0;exitX=0.284;exitY=0.044;exitDx=0;exitDy=0;exitPerimeter=0;" parent="1" source="z2AJOPOEB7NvSEIP25p2-50" target="z2AJOPOEB7NvSEIP25p2-48" edge="1">
          <mxGeometry relative="1" as="geometry">
            <mxPoint x="390" y="510" as="sourcePoint" />
            <mxPoint x="404" y="522" as="targetPoint" />
          </mxGeometry>
        </mxCell>
        <mxCell id="z2AJOPOEB7NvSEIP25p2-56" value="" style="endArrow=none;html=1;rounded=0;entryX=-0.012;entryY=0.503;entryDx=0;entryDy=0;entryPerimeter=0;exitX=0.998;exitY=0.557;exitDx=0;exitDy=0;exitPerimeter=0;" parent="1" source="z2AJOPOEB7NvSEIP25p2-36" edge="1">
          <mxGeometry relative="1" as="geometry">
            <mxPoint x="143.19798344464533" y="411.8926971659971" as="sourcePoint" />
            <mxPoint x="214" y="412.11000000000007" as="targetPoint" />
          </mxGeometry>
        </mxCell>
        <mxCell id="z2AJOPOEB7NvSEIP25p2-57" value="" style="endArrow=none;html=1;rounded=0;entryX=-0.012;entryY=0.503;entryDx=0;entryDy=0;entryPerimeter=0;exitX=0.658;exitY=0.012;exitDx=0;exitDy=0;exitPerimeter=0;" parent="1" source="z2AJOPOEB7NvSEIP25p2-33" edge="1">
          <mxGeometry relative="1" as="geometry">
            <mxPoint x="183" y="428" as="sourcePoint" />
            <mxPoint x="214" y="429.11000000000007" as="targetPoint" />
          </mxGeometry>
        </mxCell>
        <mxCell id="z2AJOPOEB7NvSEIP25p2-58" value="" style="endArrow=none;html=1;rounded=0;entryX=-0.012;entryY=0.503;entryDx=0;entryDy=0;entryPerimeter=0;exitX=0.315;exitY=0.037;exitDx=0;exitDy=0;exitPerimeter=0;" parent="1" source="z2AJOPOEB7NvSEIP25p2-27" edge="1">
          <mxGeometry relative="1" as="geometry">
            <mxPoint x="244" y="454" as="sourcePoint" />
            <mxPoint x="249" y="432.00000000000006" as="targetPoint" />
          </mxGeometry>
        </mxCell>
        <mxCell id="z2AJOPOEB7NvSEIP25p2-59" value="" style="endArrow=none;html=1;rounded=0;entryX=-0.012;entryY=0.503;entryDx=0;entryDy=0;entryPerimeter=0;exitX=0.275;exitY=0.056;exitDx=0;exitDy=0;exitPerimeter=0;" parent="1" source="z2AJOPOEB7NvSEIP25p2-32" edge="1">
          <mxGeometry relative="1" as="geometry">
            <mxPoint x="307" y="455" as="sourcePoint" />
            <mxPoint x="309" y="432.00000000000006" as="targetPoint" />
          </mxGeometry>
        </mxCell>
        <mxCell id="z2AJOPOEB7NvSEIP25p2-60" value="" style="endArrow=none;html=1;rounded=0;entryX=-0.012;entryY=0.503;entryDx=0;entryDy=0;entryPerimeter=0;exitX=0;exitY=0.5;exitDx=0;exitDy=0;" parent="1" source="z2AJOPOEB7NvSEIP25p2-48" edge="1">
          <mxGeometry relative="1" as="geometry">
            <mxPoint x="332" y="448" as="sourcePoint" />
            <mxPoint x="314" y="420.00000000000006" as="targetPoint" />
          </mxGeometry>
        </mxCell>
        <mxCell id="z2AJOPOEB7NvSEIP25p2-61" value="" style="endArrow=none;html=1;rounded=0;entryX=-0.012;entryY=0.503;entryDx=0;entryDy=0;entryPerimeter=0;exitX=0.03;exitY=0.651;exitDx=0;exitDy=0;exitPerimeter=0;" parent="1" source="z2AJOPOEB7NvSEIP25p2-23" edge="1">
          <mxGeometry relative="1" as="geometry">
            <mxPoint x="351" y="404" as="sourcePoint" />
            <mxPoint x="314" y="395.00000000000006" as="targetPoint" />
          </mxGeometry>
        </mxCell>
        <mxCell id="z2AJOPOEB7NvSEIP25p2-62" value="" style="endArrow=none;html=1;rounded=0;entryX=0.881;entryY=-0.005;entryDx=0;entryDy=0;entryPerimeter=0;exitX=0.28;exitY=0.955;exitDx=0;exitDy=0;exitPerimeter=0;" parent="1" source="z2AJOPOEB7NvSEIP25p2-31" target="z2AJOPOEB7NvSEIP25p2-6" edge="1">
          <mxGeometry relative="1" as="geometry">
            <mxPoint x="351" y="381" as="sourcePoint" />
            <mxPoint x="292" y="391.00000000000006" as="targetPoint" />
          </mxGeometry>
        </mxCell>
        <mxCell id="z2AJOPOEB7NvSEIP25p2-63" value="" style="endArrow=none;html=1;rounded=0;entryX=0.467;entryY=0.001;entryDx=0;entryDy=0;entryPerimeter=0;exitX=0.266;exitY=0.952;exitDx=0;exitDy=0;exitPerimeter=0;" parent="1" source="z2AJOPOEB7NvSEIP25p2-24" target="z2AJOPOEB7NvSEIP25p2-6" edge="1">
          <mxGeometry relative="1" as="geometry">
            <mxPoint x="251" y="359" as="sourcePoint" />
            <mxPoint x="231" y="388" as="targetPoint" />
          </mxGeometry>
        </mxCell>
        <mxCell id="z2AJOPOEB7NvSEIP25p2-64" value="" style="endArrow=none;html=1;rounded=0;exitX=0.551;exitY=0.993;exitDx=0;exitDy=0;exitPerimeter=0;entryX=0.217;entryY=0.01;entryDx=0;entryDy=0;entryPerimeter=0;" parent="1" source="z2AJOPOEB7NvSEIP25p2-25" target="z2AJOPOEB7NvSEIP25p2-6" edge="1">
          <mxGeometry relative="1" as="geometry">
            <mxPoint x="201" y="371" as="sourcePoint" />
            <mxPoint x="236" y="391" as="targetPoint" />
          </mxGeometry>
        </mxCell>
        <mxCell id="-YLWqecYwAePO9jABgYS-4" value="employed_date" style="ellipse;whiteSpace=wrap;html=1;align=center;" parent="1" vertex="1">
          <mxGeometry x="425" y="395" width="102" height="40.63" as="geometry" />
        </mxCell>
        <mxCell id="-YLWqecYwAePO9jABgYS-5" value="" style="endArrow=none;html=1;rounded=0;entryX=-0.012;entryY=0.503;entryDx=0;entryDy=0;entryPerimeter=0;exitX=0;exitY=0.5;exitDx=0;exitDy=0;" parent="1" source="-YLWqecYwAePO9jABgYS-4" edge="1">
          <mxGeometry relative="1" as="geometry">
            <mxPoint x="405" y="374" as="sourcePoint" />
            <mxPoint x="314" y="413.00000000000006" as="targetPoint" />
          </mxGeometry>
        </mxCell>
        <mxCell id="-YLWqecYwAePO9jABgYS-6" value="&lt;u&gt;staffID&lt;/u&gt;" style="ellipse;whiteSpace=wrap;html=1;align=center;" parent="1" vertex="1">
          <mxGeometry x="675" y="222" width="72" height="29" as="geometry" />
        </mxCell>
        <mxCell id="-YLWqecYwAePO9jABgYS-7" value="" style="endArrow=none;html=1;rounded=0;entryX=0.5;entryY=1;entryDx=0;entryDy=0;exitX=0.163;exitY=0.004;exitDx=0;exitDy=0;exitPerimeter=0;" parent="1" source="z2AJOPOEB7NvSEIP25p2-2" target="-YLWqecYwAePO9jABgYS-6" edge="1">
          <mxGeometry relative="1" as="geometry">
            <mxPoint x="708.62" y="322" as="sourcePoint" />
            <mxPoint x="708.62" y="395.00000000000006" as="targetPoint" />
          </mxGeometry>
        </mxCell>
        <mxCell id="-YLWqecYwAePO9jABgYS-9" value="" style="endArrow=none;html=1;rounded=0;entryX=0.435;entryY=1.004;entryDx=0;entryDy=0;exitX=0.831;exitY=-0.007;exitDx=0;exitDy=0;exitPerimeter=0;entryPerimeter=0;" parent="1" source="z2AJOPOEB7NvSEIP25p2-2" target="-YLWqecYwAePO9jABgYS-10" edge="1">
          <mxGeometry relative="1" as="geometry">
            <mxPoint x="758.9000000000001" y="303.64" as="sourcePoint" />
            <mxPoint x="792.4000000000001" y="250.10100000000006" as="targetPoint" />
          </mxGeometry>
        </mxCell>
        <mxCell id="-YLWqecYwAePO9jABgYS-10" value="specialty" style="ellipse;whiteSpace=wrap;html=1;align=center;" parent="1" vertex="1">
          <mxGeometry x="759" y="218" width="102" height="40.63" as="geometry" />
        </mxCell>
        <mxCell id="-YLWqecYwAePO9jABgYS-13" value="" style="endArrow=none;html=1;rounded=0;entryX=0.997;entryY=0.555;entryDx=0;entryDy=0;exitX=0;exitY=0.5;exitDx=0;exitDy=0;entryPerimeter=0;" parent="1" source="z2AJOPOEB7NvSEIP25p2-2" target="-YLWqecYwAePO9jABgYS-14" edge="1">
          <mxGeometry relative="1" as="geometry">
            <mxPoint x="681.2" y="395.89" as="sourcePoint" />
            <mxPoint x="583.4000000000001" y="336.85100000000006" as="targetPoint" />
          </mxGeometry>
        </mxCell>
        <mxCell id="-YLWqecYwAePO9jABgYS-14" value="License_number" style="ellipse;whiteSpace=wrap;html=1;align=center;" parent="1" vertex="1">
          <mxGeometry x="553" y="313.37" width="102" height="40.63" as="geometry" />
        </mxCell>
        <mxCell id="-YLWqecYwAePO9jABgYS-15" value="" style="endArrow=none;html=1;rounded=0;entryX=0.558;entryY=0.006;entryDx=0;entryDy=0;exitX=0.25;exitY=1;exitDx=0;exitDy=0;entryPerimeter=0;" parent="1" target="-YLWqecYwAePO9jABgYS-16" edge="1">
          <mxGeometry relative="1" as="geometry">
            <mxPoint x="709" y="354" as="sourcePoint" />
            <mxPoint x="645.4000000000001" y="389.48100000000005" as="targetPoint" />
          </mxGeometry>
        </mxCell>
        <mxCell id="-YLWqecYwAePO9jABgYS-16" value="Qualifications" style="ellipse;whiteSpace=wrap;html=1;align=center;" parent="1" vertex="1">
          <mxGeometry x="631" y="384" width="99" height="40.63" as="geometry" />
        </mxCell>
        <mxCell id="-YLWqecYwAePO9jABgYS-17" value="experience" style="ellipse;whiteSpace=wrap;html=1;align=center;" parent="1" vertex="1">
          <mxGeometry x="765" y="398.19" width="99" height="40.63" as="geometry" />
        </mxCell>
        <mxCell id="-YLWqecYwAePO9jABgYS-18" value="" style="endArrow=none;html=1;rounded=0;entryX=0.354;entryY=0.024;entryDx=0;entryDy=0;exitX=0.25;exitY=1;exitDx=0;exitDy=0;entryPerimeter=0;" parent="1" target="-YLWqecYwAePO9jABgYS-17" edge="1">
          <mxGeometry relative="1" as="geometry">
            <mxPoint x="776" y="354" as="sourcePoint" />
            <mxPoint x="755" y="381" as="targetPoint" />
          </mxGeometry>
        </mxCell>
        <mxCell id="-YLWqecYwAePO9jABgYS-19" value="email" style="ellipse;whiteSpace=wrap;html=1;align=center;" parent="1" vertex="1">
          <mxGeometry x="83" y="301" width="72" height="29" as="geometry" />
        </mxCell>
        <mxCell id="-YLWqecYwAePO9jABgYS-20" value="" style="endArrow=none;html=1;rounded=0;exitX=0.551;exitY=0.993;exitDx=0;exitDy=0;exitPerimeter=0;entryX=0;entryY=0.031;entryDx=0;entryDy=0;entryPerimeter=0;" parent="1" source="-YLWqecYwAePO9jABgYS-19" target="z2AJOPOEB7NvSEIP25p2-6" edge="1">
          <mxGeometry relative="1" as="geometry">
            <mxPoint x="147" y="386.23" as="sourcePoint" />
            <mxPoint x="196" y="401.04" as="targetPoint" />
          </mxGeometry>
        </mxCell>
        <mxCell id="-YLWqecYwAePO9jABgYS-21" value="&lt;u&gt;staffID&lt;/u&gt;" style="ellipse;whiteSpace=wrap;html=1;align=center;" parent="1" vertex="1">
          <mxGeometry x="721" y="473" width="72" height="29" as="geometry" />
        </mxCell>
        <mxCell id="-YLWqecYwAePO9jABgYS-22" value="" style="endArrow=none;html=1;rounded=0;entryX=0.485;entryY=1.011;entryDx=0;entryDy=0;exitX=0.118;exitY=-0.017;exitDx=0;exitDy=0;exitPerimeter=0;entryPerimeter=0;" parent="1" target="-YLWqecYwAePO9jABgYS-21" edge="1">
          <mxGeometry relative="1" as="geometry">
            <mxPoint x="754.8000000000001" y="557.9999999999999" as="sourcePoint" />
            <mxPoint x="762.744" y="495.825" as="targetPoint" />
          </mxGeometry>
        </mxCell>
        <mxCell id="-YLWqecYwAePO9jABgYS-23" value="" style="endArrow=none;html=1;rounded=0;entryX=0.558;entryY=0.006;entryDx=0;entryDy=0;exitX=0.25;exitY=1;exitDx=0;exitDy=0;entryPerimeter=0;" parent="1" target="-YLWqecYwAePO9jABgYS-24" edge="1">
          <mxGeometry relative="1" as="geometry">
            <mxPoint x="770" y="598" as="sourcePoint" />
            <mxPoint x="706.4000000000001" y="633.481" as="targetPoint" />
          </mxGeometry>
        </mxCell>
        <mxCell id="-YLWqecYwAePO9jABgYS-24" value="rank" style="ellipse;whiteSpace=wrap;html=1;align=center;" parent="1" vertex="1">
          <mxGeometry x="712" y="623" width="63" height="41" as="geometry" />
        </mxCell>
        <mxCell id="-YLWqecYwAePO9jABgYS-25" value="" style="endArrow=none;html=1;rounded=0;entryX=0.558;entryY=0.006;entryDx=0;entryDy=0;exitX=0.25;exitY=1;exitDx=0;exitDy=0;entryPerimeter=0;" parent="1" target="-YLWqecYwAePO9jABgYS-26" edge="1">
          <mxGeometry relative="1" as="geometry">
            <mxPoint x="825" y="598" as="sourcePoint" />
            <mxPoint x="761.4000000000001" y="633.481" as="targetPoint" />
          </mxGeometry>
        </mxCell>
        <mxCell id="-YLWqecYwAePO9jABgYS-26" value="ER" style="ellipse;whiteSpace=wrap;html=1;align=center;" parent="1" vertex="1">
          <mxGeometry x="798" y="623" width="56" height="38" as="geometry" />
        </mxCell>
        <mxCell id="-YLWqecYwAePO9jABgYS-27" value="" style="endArrow=none;html=1;rounded=0;entryX=0.993;entryY=0.448;entryDx=0;entryDy=0;exitX=-0.001;exitY=0.471;exitDx=0;exitDy=0;entryPerimeter=0;exitPerimeter=0;" parent="1" source="z2AJOPOEB7NvSEIP25p2-3" target="-YLWqecYwAePO9jABgYS-28" edge="1">
          <mxGeometry relative="1" as="geometry">
            <mxPoint x="743.85" y="572.75" as="sourcePoint" />
            <mxPoint x="721.004" y="597.9960000000001" as="targetPoint" />
          </mxGeometry>
        </mxCell>
        <mxCell id="-YLWqecYwAePO9jABgYS-28" value="specialty" style="ellipse;whiteSpace=wrap;html=1;align=center;" parent="1" vertex="1">
          <mxGeometry x="655" y="563" width="63" height="41" as="geometry" />
        </mxCell>
        <mxCell id="-YLWqecYwAePO9jABgYS-29" value="" style="endArrow=none;html=1;rounded=0;entryX=0.011;entryY=0.406;entryDx=0;entryDy=0;exitX=1.001;exitY=0.582;exitDx=0;exitDy=0;entryPerimeter=0;exitPerimeter=0;" parent="1" source="z2AJOPOEB7NvSEIP25p2-3" target="-YLWqecYwAePO9jABgYS-30" edge="1">
          <mxGeometry relative="1" as="geometry">
            <mxPoint x="845" y="577" as="sourcePoint" />
            <mxPoint x="849.248" y="602.228" as="targetPoint" />
          </mxGeometry>
        </mxCell>
        <mxCell id="-YLWqecYwAePO9jABgYS-30" value="patientID" style="ellipse;whiteSpace=wrap;html=1;align=center;" parent="1" vertex="1">
          <mxGeometry x="872" y="566" width="56" height="38" as="geometry" />
        </mxCell>
        <mxCell id="-YLWqecYwAePO9jABgYS-31" value="" style="endArrow=none;html=1;rounded=0;entryX=0.361;entryY=0.98;entryDx=0;entryDy=0;exitX=0.118;exitY=-0.017;exitDx=0;exitDy=0;exitPerimeter=0;entryPerimeter=0;" parent="1" target="-YLWqecYwAePO9jABgYS-32" edge="1">
          <mxGeometry relative="1" as="geometry">
            <mxPoint x="813.9000000000001" y="557.9999999999999" as="sourcePoint" />
            <mxPoint x="815.1" y="502" as="targetPoint" />
          </mxGeometry>
        </mxCell>
        <mxCell id="-YLWqecYwAePO9jABgYS-32" value="Qualifications" style="ellipse;whiteSpace=wrap;html=1;align=center;" parent="1" vertex="1">
          <mxGeometry x="808" y="476" width="77" height="45" as="geometry" />
        </mxCell>
        <mxCell id="zESDw4BqFGQP1DBUaof6-1" value="" style="endArrow=none;html=1;rounded=0;" parent="1" target="zESDw4BqFGQP1DBUaof6-2" edge="1">
          <mxGeometry width="50" height="50" relative="1" as="geometry">
            <mxPoint x="289" y="1002" as="sourcePoint" />
            <mxPoint x="378" y="913" as="targetPoint" />
          </mxGeometry>
        </mxCell>
        <mxCell id="zESDw4BqFGQP1DBUaof6-2" value="&lt;u&gt;Prescription number&lt;/u&gt;" style="ellipse;whiteSpace=wrap;html=1;" parent="1" vertex="1">
          <mxGeometry x="204" y="903" width="120" height="44" as="geometry" />
        </mxCell>
        <mxCell id="zESDw4BqFGQP1DBUaof6-4" value="" style="endArrow=none;html=1;rounded=0;exitX=0.59;exitY=0.06;exitDx=0;exitDy=0;exitPerimeter=0;" parent="1" target="zESDw4BqFGQP1DBUaof6-5" edge="1">
          <mxGeometry width="50" height="50" relative="1" as="geometry">
            <mxPoint x="191" y="1002.0000000000001" as="sourcePoint" />
            <mxPoint x="151" y="938.6" as="targetPoint" />
          </mxGeometry>
        </mxCell>
        <mxCell id="zESDw4BqFGQP1DBUaof6-5" value="Pharmacist name" style="ellipse;whiteSpace=wrap;html=1;" parent="1" vertex="1">
          <mxGeometry x="91" y="932" width="120" height="46.6" as="geometry" />
        </mxCell>
        <mxCell id="zESDw4BqFGQP1DBUaof6-6" value="" style="endArrow=none;html=1;rounded=0;" parent="1" edge="1">
          <mxGeometry width="50" height="50" relative="1" as="geometry">
            <mxPoint x="291" y="1028.35" as="sourcePoint" />
            <mxPoint x="353.0094195131808" y="978.5982564370992" as="targetPoint" />
          </mxGeometry>
        </mxCell>
        <mxCell id="zESDw4BqFGQP1DBUaof6-7" value="Quantity&amp;nbsp;" style="ellipse;whiteSpace=wrap;html=1;" parent="1" vertex="1">
          <mxGeometry x="324" y="942" width="120" height="42" as="geometry" />
        </mxCell>
        <mxCell id="zESDw4BqFGQP1DBUaof6-10" value="" style="endArrow=none;html=1;rounded=0;" parent="1" target="zESDw4BqFGQP1DBUaof6-11" edge="1">
          <mxGeometry width="50" height="50" relative="1" as="geometry">
            <mxPoint x="190" y="1024" as="sourcePoint" />
            <mxPoint x="191" y="1028" as="targetPoint" />
          </mxGeometry>
        </mxCell>
        <mxCell id="zESDw4BqFGQP1DBUaof6-11" value="Price" style="ellipse;whiteSpace=wrap;html=1;" parent="1" vertex="1">
          <mxGeometry x="31" y="1004" width="120" height="43" as="geometry" />
        </mxCell>
        <mxCell id="zESDw4BqFGQP1DBUaof6-12" value="" style="endArrow=none;html=1;rounded=0;" parent="1" target="zESDw4BqFGQP1DBUaof6-13" edge="1">
          <mxGeometry width="50" height="50" relative="1" as="geometry">
            <mxPoint x="882" y="1002" as="sourcePoint" />
            <mxPoint x="932" y="952" as="targetPoint" />
          </mxGeometry>
        </mxCell>
        <mxCell id="zESDw4BqFGQP1DBUaof6-13" value="&lt;u&gt;Appointment_Number&lt;/u&gt;" style="ellipse;whiteSpace=wrap;html=1;" parent="1" vertex="1">
          <mxGeometry x="892" y="922" width="130" height="40" as="geometry" />
        </mxCell>
        <mxCell id="zESDw4BqFGQP1DBUaof6-14" value="" style="endArrow=none;html=1;rounded=0;" parent="1" target="zESDw4BqFGQP1DBUaof6-15" edge="1">
          <mxGeometry width="50" height="50" relative="1" as="geometry">
            <mxPoint x="822" y="1002" as="sourcePoint" />
            <mxPoint x="761" y="932" as="targetPoint" />
          </mxGeometry>
        </mxCell>
        <mxCell id="zESDw4BqFGQP1DBUaof6-15" value="Appointment&amp;nbsp;Date" style="ellipse;whiteSpace=wrap;html=1;" parent="1" vertex="1">
          <mxGeometry x="752" y="917" width="120" height="42" as="geometry" />
        </mxCell>
        <mxCell id="zESDw4BqFGQP1DBUaof6-16" value="" style="endArrow=none;html=1;rounded=0;" parent="1" target="zESDw4BqFGQP1DBUaof6-17" edge="1">
          <mxGeometry width="50" height="50" relative="1" as="geometry">
            <mxPoint x="782" y="1004" as="sourcePoint" />
            <mxPoint x="704" y="985" as="targetPoint" />
          </mxGeometry>
        </mxCell>
        <mxCell id="zESDw4BqFGQP1DBUaof6-17" value="&amp;nbsp;Appointment&amp;nbsp;Time" style="ellipse;whiteSpace=wrap;html=1;" parent="1" vertex="1">
          <mxGeometry x="628.5" y="942" width="116" height="40" as="geometry" />
        </mxCell>
        <mxCell id="zESDw4BqFGQP1DBUaof6-18" value="" style="endArrow=none;html=1;rounded=0;" parent="1" source="zESDw4BqFGQP1DBUaof6-20" edge="1">
          <mxGeometry width="50" height="50" relative="1" as="geometry">
            <mxPoint x="692" y="1043" as="sourcePoint" />
            <mxPoint x="782" y="1040" as="targetPoint" />
          </mxGeometry>
        </mxCell>
        <mxCell id="zESDw4BqFGQP1DBUaof6-21" value="" style="endArrow=none;html=1;rounded=0;" parent="1" target="zESDw4BqFGQP1DBUaof6-20" edge="1">
          <mxGeometry width="50" height="50" relative="1" as="geometry">
            <mxPoint x="692" y="1043" as="sourcePoint" />
            <mxPoint x="782" y="1040" as="targetPoint" />
          </mxGeometry>
        </mxCell>
        <mxCell id="zESDw4BqFGQP1DBUaof6-20" value="Doctor" style="ellipse;whiteSpace=wrap;html=1;" parent="1" vertex="1">
          <mxGeometry x="638.5" y="1033" width="106" height="51" as="geometry" />
        </mxCell>
        <mxCell id="zESDw4BqFGQP1DBUaof6-25" value="" style="endArrow=none;html=1;rounded=0;exitX=0.25;exitY=1;exitDx=0;exitDy=0;" parent="1" source="z2AJOPOEB7NvSEIP25p2-18" target="zESDw4BqFGQP1DBUaof6-27" edge="1">
          <mxGeometry width="50" height="50" relative="1" as="geometry">
            <mxPoint x="780" y="1143" as="sourcePoint" />
            <mxPoint x="837" y="1042" as="targetPoint" />
          </mxGeometry>
        </mxCell>
        <mxCell id="zESDw4BqFGQP1DBUaof6-27" value="S_Name" style="ellipse;whiteSpace=wrap;html=1;" parent="1" vertex="1">
          <mxGeometry x="697" y="1089" width="120" height="45" as="geometry" />
        </mxCell>
        <mxCell id="zESDw4BqFGQP1DBUaof6-29" value="" style="endArrow=none;html=1;rounded=0;exitX=1;exitY=1;exitDx=0;exitDy=0;" parent="1" source="z2AJOPOEB7NvSEIP25p2-18" target="zESDw4BqFGQP1DBUaof6-32" edge="1">
          <mxGeometry width="50" height="50" relative="1" as="geometry">
            <mxPoint x="912" y="1121" as="sourcePoint" />
            <mxPoint x="883" y="1042" as="targetPoint" />
          </mxGeometry>
        </mxCell>
        <mxCell id="zESDw4BqFGQP1DBUaof6-32" value="&lt;u&gt;S_ID&lt;/u&gt;" style="ellipse;whiteSpace=wrap;html=1;" parent="1" vertex="1">
          <mxGeometry x="869" y="1073" width="120" height="47.5" as="geometry" />
        </mxCell>
        <mxCell id="GzUj097-ELYoxVPAIsib-1" value="&lt;u&gt;testID&lt;/u&gt;" style="ellipse;whiteSpace=wrap;html=1;align=center;" parent="1" vertex="1">
          <mxGeometry x="342" y="639" width="51" height="27" as="geometry" />
        </mxCell>
        <mxCell id="GzUj097-ELYoxVPAIsib-2" value="" style="endArrow=none;html=1;rounded=0;entryX=0.485;entryY=1.011;entryDx=0;entryDy=0;exitX=0.064;exitY=0.018;exitDx=0;exitDy=0;exitPerimeter=0;entryPerimeter=0;" parent="1" source="z2AJOPOEB7NvSEIP25p2-22" target="GzUj097-ELYoxVPAIsib-1" edge="1">
          <mxGeometry relative="1" as="geometry">
            <mxPoint x="378.80000000000007" y="700.9999999999999" as="sourcePoint" />
            <mxPoint x="386.744" y="638.825" as="targetPoint" />
          </mxGeometry>
        </mxCell>
        <mxCell id="n5logPPj-8H7yD_uZMQ1-1" value="&lt;span style=&quot;border-bottom: 1px dotted&quot;&gt;patientID&lt;br&gt;&lt;/span&gt;" style="ellipse;whiteSpace=wrap;html=1;align=center;" parent="1" vertex="1">
          <mxGeometry x="395" y="641" width="62" height="25" as="geometry" />
        </mxCell>
        <mxCell id="n5logPPj-8H7yD_uZMQ1-2" value="" style="endArrow=none;html=1;rounded=0;entryX=0.5;entryY=1;entryDx=0;entryDy=0;exitX=0.531;exitY=-0.015;exitDx=0;exitDy=0;exitPerimeter=0;" parent="1" source="z2AJOPOEB7NvSEIP25p2-22" target="n5logPPj-8H7yD_uZMQ1-1" edge="1">
          <mxGeometry relative="1" as="geometry">
            <mxPoint x="442" y="667" as="sourcePoint" />
            <mxPoint x="407" y="750" as="targetPoint" />
          </mxGeometry>
        </mxCell>
        <mxCell id="n5logPPj-8H7yD_uZMQ1-3" value="&lt;span style=&quot;border-bottom: 1px dotted&quot;&gt;doctorID&lt;/span&gt;" style="ellipse;whiteSpace=wrap;html=1;align=center;" parent="1" vertex="1">
          <mxGeometry x="460" y="641" width="62" height="25" as="geometry" />
        </mxCell>
        <mxCell id="n5logPPj-8H7yD_uZMQ1-4" value="" style="endArrow=none;html=1;rounded=0;entryX=0.5;entryY=1;entryDx=0;entryDy=0;exitX=0.531;exitY=-0.015;exitDx=0;exitDy=0;exitPerimeter=0;" parent="1" target="n5logPPj-8H7yD_uZMQ1-3" edge="1">
          <mxGeometry relative="1" as="geometry">
            <mxPoint x="472" y="701" as="sourcePoint" />
            <mxPoint x="454" y="751" as="targetPoint" />
          </mxGeometry>
        </mxCell>
        <mxCell id="n5logPPj-8H7yD_uZMQ1-6" value="" style="endArrow=none;html=1;rounded=0;entryX=0.032;entryY=0.643;entryDx=0;entryDy=0;exitX=1;exitY=0.5;exitDx=0;exitDy=0;entryPerimeter=0;" parent="1" source="z2AJOPOEB7NvSEIP25p2-2" edge="1">
          <mxGeometry relative="1" as="geometry">
            <mxPoint x="835" y="338" as="sourcePoint" />
            <mxPoint x="835.9840000000002" y="333.07499999999993" as="targetPoint" />
          </mxGeometry>
        </mxCell>
        <mxCell id="n5logPPj-8H7yD_uZMQ1-10" value="" style="endArrow=none;html=1;rounded=0;entryX=0.065;entryY=0.759;entryDx=0;entryDy=0;exitX=1.01;exitY=0.077;exitDx=0;exitDy=0;entryPerimeter=0;exitPerimeter=0;" parent="1" source="z2AJOPOEB7NvSEIP25p2-3" edge="1">
          <mxGeometry relative="1" as="geometry">
            <mxPoint x="841" y="531" as="sourcePoint" />
            <mxPoint x="897.6799999999998" y="530.0110000000001" as="targetPoint" />
          </mxGeometry>
        </mxCell>
        <mxCell id="7sVa5tx1JdCCSQSau4tE-3" value="&lt;u&gt;patiID&lt;/u&gt;" style="ellipse;whiteSpace=wrap;html=1;" vertex="1" parent="1">
          <mxGeometry x="361" y="1253" width="80" height="45" as="geometry" />
        </mxCell>
        <mxCell id="7sVa5tx1JdCCSQSau4tE-13" value="Name" style="ellipse;shape=doubleEllipse;margin=3;whiteSpace=wrap;html=1;align=center;" vertex="1" parent="1">
          <mxGeometry x="213" y="1378" width="83" height="31" as="geometry" />
        </mxCell>
        <mxCell id="7sVa5tx1JdCCSQSau4tE-14" value="fname" style="ellipse;whiteSpace=wrap;html=1;" vertex="1" parent="1">
          <mxGeometry x="301" y="1462" width="71" height="27" as="geometry" />
        </mxCell>
        <mxCell id="7sVa5tx1JdCCSQSau4tE-16" value="sname" style="ellipse;whiteSpace=wrap;html=1;" vertex="1" parent="1">
          <mxGeometry x="234" y="1462" width="65" height="29" as="geometry" />
        </mxCell>
        <mxCell id="7sVa5tx1JdCCSQSau4tE-17" value="fname" style="ellipse;whiteSpace=wrap;html=1;" vertex="1" parent="1">
          <mxGeometry x="167" y="1462.5" width="63" height="28.5" as="geometry" />
        </mxCell>
        <mxCell id="7sVa5tx1JdCCSQSau4tE-20" value="DoB" style="ellipse;whiteSpace=wrap;html=1;" vertex="1" parent="1">
          <mxGeometry x="224.5" y="1158" width="60" height="31" as="geometry" />
        </mxCell>
        <mxCell id="7sVa5tx1JdCCSQSau4tE-24" value="age" style="ellipse;whiteSpace=wrap;html=1;align=center;dashed=1;" vertex="1" parent="1">
          <mxGeometry x="146" y="1156" width="63" height="29" as="geometry" />
        </mxCell>
        <mxCell id="7sVa5tx1JdCCSQSau4tE-25" value="patiAppointment" style="ellipse;whiteSpace=wrap;html=1;" vertex="1" parent="1">
          <mxGeometry x="5" y="1256.5" width="100" height="38.5" as="geometry" />
        </mxCell>
        <mxCell id="7sVa5tx1JdCCSQSau4tE-30" value="Address" style="ellipse;shape=doubleEllipse;margin=3;whiteSpace=wrap;html=1;align=center;" vertex="1" parent="1">
          <mxGeometry x="307" y="1182" width="83" height="38" as="geometry" />
        </mxCell>
        <mxCell id="7sVa5tx1JdCCSQSau4tE-34" value="Country" style="ellipse;whiteSpace=wrap;html=1;align=center;" vertex="1" parent="1">
          <mxGeometry x="335" y="1095" width="72" height="29" as="geometry" />
        </mxCell>
        <mxCell id="7sVa5tx1JdCCSQSau4tE-35" value="City" style="ellipse;whiteSpace=wrap;html=1;align=center;" vertex="1" parent="1">
          <mxGeometry x="428" y="1102" width="72" height="29" as="geometry" />
        </mxCell>
        <mxCell id="7sVa5tx1JdCCSQSau4tE-36" value="zipCode" style="ellipse;whiteSpace=wrap;html=1;align=center;" vertex="1" parent="1">
          <mxGeometry x="463" y="1149" width="72" height="29" as="geometry" />
        </mxCell>
        <mxCell id="7sVa5tx1JdCCSQSau4tE-37" value="" style="endArrow=none;html=1;rounded=0;exitX=0.75;exitY=0;exitDx=0;exitDy=0;entryX=0.5;entryY=1;entryDx=0;entryDy=0;" edge="1" parent="1" source="z2AJOPOEB7NvSEIP25p2-5" target="7sVa5tx1JdCCSQSau4tE-20">
          <mxGeometry width="50" height="50" relative="1" as="geometry">
            <mxPoint x="234" y="1230" as="sourcePoint" />
            <mxPoint x="250" y="1203" as="targetPoint" />
            <Array as="points" />
          </mxGeometry>
        </mxCell>
        <mxCell id="7sVa5tx1JdCCSQSau4tE-38" value="" style="endArrow=none;html=1;rounded=0;exitX=0.25;exitY=0;exitDx=0;exitDy=0;entryX=0.5;entryY=1;entryDx=0;entryDy=0;" edge="1" parent="1" source="z2AJOPOEB7NvSEIP25p2-5" target="7sVa5tx1JdCCSQSau4tE-24">
          <mxGeometry width="50" height="50" relative="1" as="geometry">
            <mxPoint x="196" y="1232" as="sourcePoint" />
            <mxPoint x="246" y="1182" as="targetPoint" />
          </mxGeometry>
        </mxCell>
        <mxCell id="7sVa5tx1JdCCSQSau4tE-39" value="" style="endArrow=none;html=1;rounded=0;exitX=1;exitY=0;exitDx=0;exitDy=0;entryX=0;entryY=1;entryDx=0;entryDy=0;" edge="1" parent="1" source="z2AJOPOEB7NvSEIP25p2-5" target="7sVa5tx1JdCCSQSau4tE-30">
          <mxGeometry width="50" height="50" relative="1" as="geometry">
            <mxPoint x="411" y="1164" as="sourcePoint" />
            <mxPoint x="461" y="1114" as="targetPoint" />
          </mxGeometry>
        </mxCell>
        <mxCell id="7sVa5tx1JdCCSQSau4tE-40" value="" style="endArrow=none;html=1;rounded=0;exitX=1;exitY=0.5;exitDx=0;exitDy=0;entryX=0;entryY=0.5;entryDx=0;entryDy=0;" edge="1" parent="1" source="z2AJOPOEB7NvSEIP25p2-5" target="7sVa5tx1JdCCSQSau4tE-3">
          <mxGeometry width="50" height="50" relative="1" as="geometry">
            <mxPoint x="282" y="1279" as="sourcePoint" />
            <mxPoint x="332" y="1229" as="targetPoint" />
          </mxGeometry>
        </mxCell>
        <mxCell id="7sVa5tx1JdCCSQSau4tE-41" value="" style="endArrow=none;html=1;rounded=0;exitX=0;exitY=0.5;exitDx=0;exitDy=0;entryX=1;entryY=0.5;entryDx=0;entryDy=0;" edge="1" parent="1" source="z2AJOPOEB7NvSEIP25p2-5" target="7sVa5tx1JdCCSQSau4tE-25">
          <mxGeometry width="50" height="50" relative="1" as="geometry">
            <mxPoint x="411" y="1164" as="sourcePoint" />
            <mxPoint x="461" y="1114" as="targetPoint" />
          </mxGeometry>
        </mxCell>
        <mxCell id="7sVa5tx1JdCCSQSau4tE-42" value="" style="endArrow=none;html=1;rounded=0;exitX=0.75;exitY=1;exitDx=0;exitDy=0;entryX=0.5;entryY=0;entryDx=0;entryDy=0;" edge="1" parent="1" source="z2AJOPOEB7NvSEIP25p2-5" target="7sVa5tx1JdCCSQSau4tE-13">
          <mxGeometry width="50" height="50" relative="1" as="geometry">
            <mxPoint x="411" y="1214" as="sourcePoint" />
            <mxPoint x="461" y="1164" as="targetPoint" />
          </mxGeometry>
        </mxCell>
        <mxCell id="7sVa5tx1JdCCSQSau4tE-43" value="" style="endArrow=none;html=1;rounded=0;exitX=0.5;exitY=0;exitDx=0;exitDy=0;entryX=0;entryY=1;entryDx=0;entryDy=0;" edge="1" parent="1" source="7sVa5tx1JdCCSQSau4tE-17" target="7sVa5tx1JdCCSQSau4tE-13">
          <mxGeometry width="50" height="50" relative="1" as="geometry">
            <mxPoint x="411" y="1214" as="sourcePoint" />
            <mxPoint x="461" y="1164" as="targetPoint" />
          </mxGeometry>
        </mxCell>
        <mxCell id="7sVa5tx1JdCCSQSau4tE-44" value="" style="endArrow=none;html=1;rounded=0;exitX=0.5;exitY=0;exitDx=0;exitDy=0;entryX=0.5;entryY=1;entryDx=0;entryDy=0;" edge="1" parent="1" source="7sVa5tx1JdCCSQSau4tE-16" target="7sVa5tx1JdCCSQSau4tE-13">
          <mxGeometry width="50" height="50" relative="1" as="geometry">
            <mxPoint x="411" y="1214" as="sourcePoint" />
            <mxPoint x="461" y="1164" as="targetPoint" />
          </mxGeometry>
        </mxCell>
        <mxCell id="7sVa5tx1JdCCSQSau4tE-45" value="" style="endArrow=none;html=1;rounded=0;exitX=0.5;exitY=0;exitDx=0;exitDy=0;entryX=1;entryY=1;entryDx=0;entryDy=0;" edge="1" parent="1" source="7sVa5tx1JdCCSQSau4tE-14" target="7sVa5tx1JdCCSQSau4tE-13">
          <mxGeometry width="50" height="50" relative="1" as="geometry">
            <mxPoint x="411" y="1214" as="sourcePoint" />
            <mxPoint x="461" y="1164" as="targetPoint" />
          </mxGeometry>
        </mxCell>
        <mxCell id="7sVa5tx1JdCCSQSau4tE-46" value="" style="endArrow=none;html=1;rounded=0;exitX=0.5;exitY=0;exitDx=0;exitDy=0;entryX=0.5;entryY=1;entryDx=0;entryDy=0;" edge="1" parent="1" source="7sVa5tx1JdCCSQSau4tE-30" target="7sVa5tx1JdCCSQSau4tE-34">
          <mxGeometry width="50" height="50" relative="1" as="geometry">
            <mxPoint x="411" y="1214" as="sourcePoint" />
            <mxPoint x="461" y="1164" as="targetPoint" />
          </mxGeometry>
        </mxCell>
        <mxCell id="7sVa5tx1JdCCSQSau4tE-47" value="" style="endArrow=none;html=1;rounded=0;exitX=1;exitY=0;exitDx=0;exitDy=0;entryX=0;entryY=1;entryDx=0;entryDy=0;" edge="1" parent="1" source="7sVa5tx1JdCCSQSau4tE-30" target="7sVa5tx1JdCCSQSau4tE-35">
          <mxGeometry width="50" height="50" relative="1" as="geometry">
            <mxPoint x="411" y="1214" as="sourcePoint" />
            <mxPoint x="461" y="1164" as="targetPoint" />
          </mxGeometry>
        </mxCell>
        <mxCell id="7sVa5tx1JdCCSQSau4tE-48" value="" style="endArrow=none;html=1;rounded=0;exitX=1;exitY=0.5;exitDx=0;exitDy=0;entryX=0;entryY=0.5;entryDx=0;entryDy=0;" edge="1" parent="1" source="7sVa5tx1JdCCSQSau4tE-30" target="7sVa5tx1JdCCSQSau4tE-36">
          <mxGeometry width="50" height="50" relative="1" as="geometry">
            <mxPoint x="411" y="1214" as="sourcePoint" />
            <mxPoint x="461" y="1164" as="targetPoint" />
          </mxGeometry>
        </mxCell>
        <mxCell id="7sVa5tx1JdCCSQSau4tE-49" value="patiTest" style="ellipse;whiteSpace=wrap;html=1;" vertex="1" parent="1">
          <mxGeometry x="11" y="1325" width="103" height="35" as="geometry" />
        </mxCell>
        <mxCell id="7sVa5tx1JdCCSQSau4tE-50" value="" style="endArrow=none;html=1;rounded=0;exitX=1;exitY=0.5;exitDx=0;exitDy=0;entryX=0;entryY=1;entryDx=0;entryDy=0;" edge="1" parent="1" source="7sVa5tx1JdCCSQSau4tE-49" target="z2AJOPOEB7NvSEIP25p2-5">
          <mxGeometry width="50" height="50" relative="1" as="geometry">
            <mxPoint x="152" y="1372" as="sourcePoint" />
            <mxPoint x="202" y="1322" as="targetPoint" />
          </mxGeometry>
        </mxCell>
        <mxCell id="7sVa5tx1JdCCSQSau4tE-51" value="Gender" style="ellipse;whiteSpace=wrap;html=1;align=center;" vertex="1" parent="1">
          <mxGeometry x="45" y="1176" width="72" height="29" as="geometry" />
        </mxCell>
        <mxCell id="7sVa5tx1JdCCSQSau4tE-52" value="" style="endArrow=none;html=1;rounded=0;exitX=0;exitY=0;exitDx=0;exitDy=0;entryX=1;entryY=1;entryDx=0;entryDy=0;" edge="1" parent="1" source="z2AJOPOEB7NvSEIP25p2-5" target="7sVa5tx1JdCCSQSau4tE-51">
          <mxGeometry width="50" height="50" relative="1" as="geometry">
            <mxPoint x="417" y="1385" as="sourcePoint" />
            <mxPoint x="467" y="1335" as="targetPoint" />
          </mxGeometry>
        </mxCell>
        <mxCell id="7sVa5tx1JdCCSQSau4tE-53" value="blood type" style="ellipse;whiteSpace=wrap;html=1;" vertex="1" parent="1">
          <mxGeometry x="337" y="1329" width="99" height="41" as="geometry" />
        </mxCell>
        <mxCell id="7sVa5tx1JdCCSQSau4tE-54" value="" style="endArrow=none;html=1;rounded=0;exitX=1;exitY=1;exitDx=0;exitDy=0;entryX=0;entryY=0;entryDx=0;entryDy=0;" edge="1" parent="1" source="z2AJOPOEB7NvSEIP25p2-5" target="7sVa5tx1JdCCSQSau4tE-53">
          <mxGeometry width="50" height="50" relative="1" as="geometry">
            <mxPoint x="272" y="1354" as="sourcePoint" />
            <mxPoint x="322" y="1304" as="targetPoint" />
          </mxGeometry>
        </mxCell>
        <mxCell id="7sVa5tx1JdCCSQSau4tE-55" value="insurance policy" style="ellipse;whiteSpace=wrap;html=1;" vertex="1" parent="1">
          <mxGeometry x="47.5" y="1386" width="87" height="45" as="geometry" />
        </mxCell>
        <mxCell id="7sVa5tx1JdCCSQSau4tE-56" value="" style="endArrow=none;html=1;rounded=0;exitX=1;exitY=0;exitDx=0;exitDy=0;entryX=0.25;entryY=1;entryDx=0;entryDy=0;" edge="1" parent="1" source="7sVa5tx1JdCCSQSau4tE-55" target="z2AJOPOEB7NvSEIP25p2-5">
          <mxGeometry width="50" height="50" relative="1" as="geometry">
            <mxPoint x="157" y="1375" as="sourcePoint" />
            <mxPoint x="207" y="1325" as="targetPoint" />
          </mxGeometry>
        </mxCell>
      </root>
    </mxGraphModel>
  </diagram>
  <diagram id="S_CegwYcL_D5RK7qd9Bt" name="Ali">
    <mxGraphModel grid="1" page="1" gridSize="10" guides="1" tooltips="1" connect="1" arrows="1" fold="1" pageScale="1" pageWidth="850" pageHeight="1100" math="0" shadow="0">
      <root>
        <mxCell id="0" />
        <mxCell id="1" parent="0" />
        <mxCell id="SlILoNsmUfgGrYnMYvv5-8" value="&lt;span style=&quot;border: 0px solid rgb(227, 227, 227); box-sizing: border-box; --tw-border-spacing-x: 0; --tw-border-spacing-y: 0; --tw-translate-x: 0; --tw-translate-y: 0; --tw-rotate: 0; --tw-skew-x: 0; --tw-skew-y: 0; --tw-scale-x: 1; --tw-scale-y: 1; --tw-pan-x: ; --tw-pan-y: ; --tw-pinch-zoom: ; --tw-scroll-snap-strictness: proximity; --tw-gradient-from-position: ; --tw-gradient-via-position: ; --tw-gradient-to-position: ; --tw-ordinal: ; --tw-slashed-zero: ; --tw-numeric-figure: ; --tw-numeric-spacing: ; --tw-numeric-fraction: ; --tw-ring-inset: ; --tw-ring-offset-width: 0px; --tw-ring-offset-color: #fff; --tw-ring-color: rgba(69,89,164,.5); --tw-ring-offset-shadow: 0 0 transparent; --tw-ring-shadow: 0 0 transparent; --tw-shadow: 0 0 transparent; --tw-shadow-colored: 0 0 transparent; --tw-blur: ; --tw-brightness: ; --tw-contrast: ; --tw-grayscale: ; --tw-hue-rotate: ; --tw-invert: ; --tw-saturate: ; --tw-sepia: ; --tw-drop-shadow: ; --tw-backdrop-blur: ; --tw-backdrop-brightness: ; --tw-backdrop-contrast: ; --tw-backdrop-grayscale: ; --tw-backdrop-hue-rotate: ; --tw-backdrop-invert: ; --tw-backdrop-opacity: ; --tw-backdrop-saturate: ; --tw-backdrop-sepia: ; --tw-contain-size: ; --tw-contain-layout: ; --tw-contain-paint: ; --tw-contain-style: ; font-weight: 600; font-family: Söhne, ui-sans-serif, system-ui, -apple-system, &amp;quot;Segoe UI&amp;quot;, Roboto, Ubuntu, Cantarell, &amp;quot;Noto Sans&amp;quot;, sans-serif, &amp;quot;Helvetica Neue&amp;quot;, Arial, &amp;quot;Apple Color Emoji&amp;quot;, &amp;quot;Segoe UI Emoji&amp;quot;, &amp;quot;Segoe UI Symbol&amp;quot;, &amp;quot;Noto Color Emoji&amp;quot;; font-size: 16px; text-align: left;&quot;&gt;Payment&lt;/span&gt;" style="rounded=0;whiteSpace=wrap;html=1;" vertex="1" parent="1">
          <mxGeometry x="199" y="347" width="120" height="60" as="geometry" />
        </mxCell>
        <mxCell id="SlILoNsmUfgGrYnMYvv5-10" value="paymentID" style="ellipse;whiteSpace=wrap;html=1;align=center;fontStyle=4;labelBackgroundColor=none;fontColor=#000000;" vertex="1" parent="1">
          <mxGeometry x="30" y="270" width="100" height="40" as="geometry" />
        </mxCell>
        <mxCell id="SlILoNsmUfgGrYnMYvv5-11" value="amount" style="ellipse;whiteSpace=wrap;html=1;align=center;labelBackgroundColor=none;fontColor=#000000;" vertex="1" parent="1">
          <mxGeometry x="9" y="357" width="100" height="40" as="geometry" />
        </mxCell>
        <mxCell id="SlILoNsmUfgGrYnMYvv5-12" value="date" style="ellipse;whiteSpace=wrap;html=1;align=center;labelBackgroundColor=none;fontColor=#000000;" vertex="1" parent="1">
          <mxGeometry x="109" y="470" width="100" height="40" as="geometry" />
        </mxCell>
        <mxCell id="w6fd9c9oIa4JaICTmOyA-1" value="&lt;span style=&quot;border-bottom: 1px dotted&quot;&gt;patientID&lt;br&gt;&lt;/span&gt;" style="ellipse;whiteSpace=wrap;html=1;align=center;" vertex="1" parent="1">
          <mxGeometry x="209" y="230" width="100" height="40" as="geometry" />
        </mxCell>
        <mxCell id="w6fd9c9oIa4JaICTmOyA-2" value="statue" style="ellipse;whiteSpace=wrap;html=1;align=center;labelBackgroundColor=none;fontColor=#000000;" vertex="1" parent="1">
          <mxGeometry x="440" y="357" width="100" height="40" as="geometry" />
        </mxCell>
        <mxCell id="w6fd9c9oIa4JaICTmOyA-4" value="invoice" style="ellipse;whiteSpace=wrap;html=1;align=center;labelBackgroundColor=none;fontColor=#000000;" vertex="1" parent="1">
          <mxGeometry x="310" y="470" width="100" height="40" as="geometry" />
        </mxCell>
        <mxCell id="C-pchk0-bUaz8g7NaJgA-1" value="" style="endArrow=none;html=1;rounded=0;exitX=0.5;exitY=1;exitDx=0;exitDy=0;entryX=0;entryY=0;entryDx=0;entryDy=0;" edge="1" parent="1" source="SlILoNsmUfgGrYnMYvv5-10" target="SlILoNsmUfgGrYnMYvv5-8">
          <mxGeometry relative="1" as="geometry">
            <mxPoint x="123" y="330" as="sourcePoint" />
            <mxPoint x="214" y="393" as="targetPoint" />
          </mxGeometry>
        </mxCell>
        <mxCell id="C-pchk0-bUaz8g7NaJgA-3" value="" style="endArrow=none;html=1;rounded=0;exitX=0.5;exitY=0;exitDx=0;exitDy=0;entryX=0.5;entryY=1;entryDx=0;entryDy=0;" edge="1" parent="1" source="SlILoNsmUfgGrYnMYvv5-8" target="w6fd9c9oIa4JaICTmOyA-1">
          <mxGeometry relative="1" as="geometry">
            <mxPoint x="133" y="340" as="sourcePoint" />
            <mxPoint x="224" y="403" as="targetPoint" />
          </mxGeometry>
        </mxCell>
        <mxCell id="C-pchk0-bUaz8g7NaJgA-4" value="payment_method" style="ellipse;whiteSpace=wrap;html=1;align=center;labelBackgroundColor=none;fontColor=#000000;" vertex="1" parent="1">
          <mxGeometry x="390" y="260" width="115" height="50" as="geometry" />
        </mxCell>
        <mxCell id="C-pchk0-bUaz8g7NaJgA-5" value="" style="endArrow=none;html=1;rounded=0;exitX=1;exitY=0;exitDx=0;exitDy=0;entryX=0.5;entryY=1;entryDx=0;entryDy=0;" edge="1" parent="1" source="SlILoNsmUfgGrYnMYvv5-8" target="C-pchk0-bUaz8g7NaJgA-4">
          <mxGeometry relative="1" as="geometry">
            <mxPoint x="269" y="357" as="sourcePoint" />
            <mxPoint x="269" y="280" as="targetPoint" />
          </mxGeometry>
        </mxCell>
        <mxCell id="C-pchk0-bUaz8g7NaJgA-6" value="" style="endArrow=none;html=1;rounded=0;exitX=1;exitY=0.5;exitDx=0;exitDy=0;entryX=0;entryY=0.5;entryDx=0;entryDy=0;" edge="1" parent="1" source="SlILoNsmUfgGrYnMYvv5-8" target="w6fd9c9oIa4JaICTmOyA-2">
          <mxGeometry relative="1" as="geometry">
            <mxPoint x="279" y="367" as="sourcePoint" />
            <mxPoint x="279" y="290" as="targetPoint" />
          </mxGeometry>
        </mxCell>
        <mxCell id="C-pchk0-bUaz8g7NaJgA-7" value="" style="endArrow=none;html=1;rounded=0;exitX=0;exitY=0;exitDx=0;exitDy=0;entryX=0.75;entryY=1;entryDx=0;entryDy=0;" edge="1" parent="1" source="w6fd9c9oIa4JaICTmOyA-4" target="SlILoNsmUfgGrYnMYvv5-8">
          <mxGeometry relative="1" as="geometry">
            <mxPoint x="289" y="377" as="sourcePoint" />
            <mxPoint x="289" y="300" as="targetPoint" />
          </mxGeometry>
        </mxCell>
        <mxCell id="C-pchk0-bUaz8g7NaJgA-8" value="" style="endArrow=none;html=1;rounded=0;exitX=0.5;exitY=0;exitDx=0;exitDy=0;entryX=0.25;entryY=1;entryDx=0;entryDy=0;" edge="1" parent="1" source="SlILoNsmUfgGrYnMYvv5-12" target="SlILoNsmUfgGrYnMYvv5-8">
          <mxGeometry relative="1" as="geometry">
            <mxPoint x="299" y="387" as="sourcePoint" />
            <mxPoint x="299" y="310" as="targetPoint" />
          </mxGeometry>
        </mxCell>
        <mxCell id="C-pchk0-bUaz8g7NaJgA-9" value="" style="endArrow=none;html=1;rounded=0;exitX=1;exitY=0.5;exitDx=0;exitDy=0;entryX=0;entryY=0.5;entryDx=0;entryDy=0;" edge="1" parent="1" source="SlILoNsmUfgGrYnMYvv5-11" target="SlILoNsmUfgGrYnMYvv5-8">
          <mxGeometry relative="1" as="geometry">
            <mxPoint x="309" y="397" as="sourcePoint" />
            <mxPoint x="309" y="320" as="targetPoint" />
          </mxGeometry>
        </mxCell>
        <mxCell id="Eri2QhNphxrQwMGdxeVq-1" value="&lt;span style=&quot;border: 0px solid rgb(227, 227, 227); box-sizing: border-box; --tw-border-spacing-x: 0; --tw-border-spacing-y: 0; --tw-translate-x: 0; --tw-translate-y: 0; --tw-rotate: 0; --tw-skew-x: 0; --tw-skew-y: 0; --tw-scale-x: 1; --tw-scale-y: 1; --tw-pan-x: ; --tw-pan-y: ; --tw-pinch-zoom: ; --tw-scroll-snap-strictness: proximity; --tw-gradient-from-position: ; --tw-gradient-via-position: ; --tw-gradient-to-position: ; --tw-ordinal: ; --tw-slashed-zero: ; --tw-numeric-figure: ; --tw-numeric-spacing: ; --tw-numeric-fraction: ; --tw-ring-inset: ; --tw-ring-offset-width: 0px; --tw-ring-offset-color: #fff; --tw-ring-color: rgba(69,89,164,.5); --tw-ring-offset-shadow: 0 0 transparent; --tw-ring-shadow: 0 0 transparent; --tw-shadow: 0 0 transparent; --tw-shadow-colored: 0 0 transparent; --tw-blur: ; --tw-brightness: ; --tw-contrast: ; --tw-grayscale: ; --tw-hue-rotate: ; --tw-invert: ; --tw-saturate: ; --tw-sepia: ; --tw-drop-shadow: ; --tw-backdrop-blur: ; --tw-backdrop-brightness: ; --tw-backdrop-contrast: ; --tw-backdrop-grayscale: ; --tw-backdrop-hue-rotate: ; --tw-backdrop-invert: ; --tw-backdrop-opacity: ; --tw-backdrop-saturate: ; --tw-backdrop-sepia: ; --tw-contain-size: ; --tw-contain-layout: ; --tw-contain-paint: ; --tw-contain-style: ; font-weight: 600; font-family: Söhne, ui-sans-serif, system-ui, -apple-system, &amp;quot;Segoe UI&amp;quot;, Roboto, Ubuntu, Cantarell, &amp;quot;Noto Sans&amp;quot;, sans-serif, &amp;quot;Helvetica Neue&amp;quot;, Arial, &amp;quot;Apple Color Emoji&amp;quot;, &amp;quot;Segoe UI Emoji&amp;quot;, &amp;quot;Segoe UI Symbol&amp;quot;, &amp;quot;Noto Color Emoji&amp;quot;; font-size: 16px; text-align: left;&quot;&gt;Payment&lt;/span&gt;" style="rounded=0;whiteSpace=wrap;html=1;" vertex="1" parent="1">
          <mxGeometry x="209" y="764" width="120" height="60" as="geometry" />
        </mxCell>
        <mxCell id="Eri2QhNphxrQwMGdxeVq-2" value="depID" style="ellipse;whiteSpace=wrap;html=1;align=center;fontStyle=4;labelBackgroundColor=none;fontColor=#000000;" vertex="1" parent="1">
          <mxGeometry x="40" y="687" width="100" height="40" as="geometry" />
        </mxCell>
        <mxCell id="Eri2QhNphxrQwMGdxeVq-5" value="&lt;span style=&quot;border-bottom: 1px dotted&quot;&gt;doctorID&lt;br&gt;&lt;/span&gt;" style="ellipse;whiteSpace=wrap;html=1;align=center;" vertex="1" parent="1">
          <mxGeometry x="219" y="647" width="100" height="40" as="geometry" />
        </mxCell>
        <mxCell id="Eri2QhNphxrQwMGdxeVq-6" value="description" style="ellipse;whiteSpace=wrap;html=1;align=center;labelBackgroundColor=none;fontColor=#000000;" vertex="1" parent="1">
          <mxGeometry x="329" y="900" width="100" height="40" as="geometry" />
        </mxCell>
        <mxCell id="Eri2QhNphxrQwMGdxeVq-7" value="contract" style="ellipse;whiteSpace=wrap;html=1;align=center;labelBackgroundColor=none;fontColor=#000000;" vertex="1" parent="1">
          <mxGeometry x="119" y="900" width="100" height="40" as="geometry" />
        </mxCell>
        <mxCell id="Eri2QhNphxrQwMGdxeVq-8" value="" style="endArrow=none;html=1;rounded=0;exitX=0.5;exitY=1;exitDx=0;exitDy=0;entryX=0;entryY=0;entryDx=0;entryDy=0;" edge="1" parent="1" source="Eri2QhNphxrQwMGdxeVq-2" target="Eri2QhNphxrQwMGdxeVq-1">
          <mxGeometry relative="1" as="geometry">
            <mxPoint x="133" y="747" as="sourcePoint" />
            <mxPoint x="224" y="810" as="targetPoint" />
          </mxGeometry>
        </mxCell>
        <mxCell id="Eri2QhNphxrQwMGdxeVq-9" value="" style="endArrow=none;html=1;rounded=0;exitX=0.5;exitY=0;exitDx=0;exitDy=0;entryX=0.5;entryY=1;entryDx=0;entryDy=0;" edge="1" parent="1" source="Eri2QhNphxrQwMGdxeVq-1" target="Eri2QhNphxrQwMGdxeVq-5">
          <mxGeometry relative="1" as="geometry">
            <mxPoint x="143" y="757" as="sourcePoint" />
            <mxPoint x="234" y="820" as="targetPoint" />
          </mxGeometry>
        </mxCell>
        <mxCell id="Eri2QhNphxrQwMGdxeVq-10" value="department_name" style="ellipse;whiteSpace=wrap;html=1;align=center;labelBackgroundColor=none;fontColor=#000000;" vertex="1" parent="1">
          <mxGeometry x="400" y="677" width="115" height="50" as="geometry" />
        </mxCell>
        <mxCell id="Eri2QhNphxrQwMGdxeVq-11" value="" style="endArrow=none;html=1;rounded=0;exitX=1;exitY=0;exitDx=0;exitDy=0;entryX=0.5;entryY=1;entryDx=0;entryDy=0;" edge="1" parent="1" source="Eri2QhNphxrQwMGdxeVq-1" target="Eri2QhNphxrQwMGdxeVq-10">
          <mxGeometry relative="1" as="geometry">
            <mxPoint x="279" y="774" as="sourcePoint" />
            <mxPoint x="279" y="697" as="targetPoint" />
          </mxGeometry>
        </mxCell>
        <mxCell id="Eri2QhNphxrQwMGdxeVq-12" value="" style="endArrow=none;html=1;rounded=0;exitX=0.75;exitY=1;exitDx=0;exitDy=0;entryX=0.5;entryY=0;entryDx=0;entryDy=0;" edge="1" parent="1" source="Eri2QhNphxrQwMGdxeVq-1" target="Eri2QhNphxrQwMGdxeVq-6">
          <mxGeometry relative="1" as="geometry">
            <mxPoint x="289" y="784" as="sourcePoint" />
            <mxPoint x="289" y="707" as="targetPoint" />
          </mxGeometry>
        </mxCell>
        <mxCell id="Eri2QhNphxrQwMGdxeVq-13" value="" style="endArrow=none;html=1;rounded=0;exitX=0.5;exitY=0;exitDx=0;exitDy=0;entryX=0.25;entryY=1;entryDx=0;entryDy=0;" edge="1" parent="1" source="Eri2QhNphxrQwMGdxeVq-7" target="Eri2QhNphxrQwMGdxeVq-1">
          <mxGeometry relative="1" as="geometry">
            <mxPoint x="299" y="794" as="sourcePoint" />
            <mxPoint x="299" y="717" as="targetPoint" />
          </mxGeometry>
        </mxCell>
        <mxCell id="Eri2QhNphxrQwMGdxeVq-16" value="email" style="ellipse;whiteSpace=wrap;html=1;align=center;labelBackgroundColor=none;fontColor=#000000;" vertex="1" parent="1">
          <mxGeometry x="30" y="990" width="100" height="40" as="geometry" />
        </mxCell>
        <mxCell id="Eri2QhNphxrQwMGdxeVq-17" value="phone_number" style="ellipse;whiteSpace=wrap;html=1;align=center;labelBackgroundColor=none;fontColor=#000000;" vertex="1" parent="1">
          <mxGeometry x="209" y="990" width="100" height="40" as="geometry" />
        </mxCell>
        <mxCell id="Eri2QhNphxrQwMGdxeVq-18" value="" style="endArrow=none;html=1;rounded=0;exitX=1;exitY=1;exitDx=0;exitDy=0;" edge="1" parent="1" source="Eri2QhNphxrQwMGdxeVq-7" target="Eri2QhNphxrQwMGdxeVq-17">
          <mxGeometry relative="1" as="geometry">
            <mxPoint x="130" y="910" as="sourcePoint" />
            <mxPoint x="219" y="834" as="targetPoint" />
          </mxGeometry>
        </mxCell>
        <mxCell id="Eri2QhNphxrQwMGdxeVq-19" value="" style="endArrow=none;html=1;rounded=0;exitX=0.5;exitY=0;exitDx=0;exitDy=0;entryX=0;entryY=1;entryDx=0;entryDy=0;" edge="1" parent="1" source="Eri2QhNphxrQwMGdxeVq-16" target="Eri2QhNphxrQwMGdxeVq-7">
          <mxGeometry relative="1" as="geometry">
            <mxPoint x="140" y="920" as="sourcePoint" />
            <mxPoint x="229" y="844" as="targetPoint" />
          </mxGeometry>
        </mxCell>
        <mxCell id="EP7StZ56jH2Kk2w79gMY-1" value="Payment" style="whiteSpace=wrap;html=1;align=center;" vertex="1" parent="1">
          <mxGeometry x="626" y="37" width="100" height="40" as="geometry" />
        </mxCell>
        <mxCell id="Fjiq80bMQhRXbihOYf_Q-1" value="Department" style="whiteSpace=wrap;html=1;align=center;" vertex="1" parent="1">
          <mxGeometry x="510" y="37" width="100" height="40" as="geometry" />
        </mxCell>
      </root>
    </mxGraphModel>
  </diagram>
</mxfile>
